<svg xmlns="http://www.w3.org/2000/svg" viewBox="0 0 16 16"><g id="Слой_3" data-name="Слой 3"><g id="toy"><ellipse cx="8.56" cy="11.29" rx="0.64" ry="0.57" transform="translate(-5.3 14.22) rotate(-64.78)"/><ellipse cx="8.86" cy="10.65" rx="0.41" ry="0.44" transform="translate(-4.54 14.13) rotate(-64.78)"/><circle cx="8.71" cy="10.26" r="0.2"/><circle cx="9.3" cy="10.54" r="0.18"/><ellipse cx="8.25" cy="10.55" rx="0.15" ry="0.39" transform="translate(-1.08 0.94) rotate(-6.15)"/><ellipse cx="9.07" cy="11.38" rx="0.15" ry="0.39" transform="translate(-2.32 2.33) rotate(-12.97)"/><ellipse cx="7.8" cy="11.74" rx="0.18" ry="0.26" transform="translate(-5.93 8.55) rotate(-43.33)"/><ellipse cx="8.83" cy="12.06" rx="0.26" ry="0.18" transform="translate(-3.73 3.97) rotate(-21)"/><ellipse cx="7.99" cy="11.79" rx="0.21" ry="0.14" transform="translate(-6.22 10.87) rotate(-52.18)"/><ellipse cx="8.65" cy="12.02" rx="0.13" ry="0.21" transform="translate(-1.53 1.26) rotate(-7.68)"/></g><g id="girl"><path d="M9.4,8.58a.75.75,0,0,0,.69.07.7.7,0,0,0,.41-.71l1.61.44a2.75,2.75,0,0,1,0,.29l.08-.05a.58.58,0,0,1-.14.49l.11.06a.64.64,0,0,1-.28.44l.11.05s-.13.76-1.24,1.16v.08a.38.38,0,0,1-.18.08.4.4,0,0,1-.29,0V11a.88.88,0,0,1-.29,0,1.17,1.17,0,0,1-.54-.2Z"/><path d="M10.64,8.11s5,.81-.18.75Z"/><path d="M12.77,8.64l.06.12a11.79,11.79,0,0,0,.68,1.16l-.1.15a5.09,5.09,0,0,0-.8-.9,1.69,1.69,0,0,1-.29-.34,1.31,1.31,0,0,1-.15-.34Z"/><path d="M10.5,9.07A13.31,13.31,0,0,1,10.84,11c0,.13,0,.22-.09.24s-.2-.06-.29-.13a1.57,1.57,0,0,1-.31-.34A4.27,4.27,0,0,1,9.8,9.14Z"/><path d="M10.93,11.35a2.89,2.89,0,0,0,.53,1.28l-.15.1a4.39,4.39,0,0,1-.91-1.33,2.17,2.17,0,0,1-.06-.25,1.74,1.74,0,0,1,0-.45.85.85,0,0,1,.51.34A.61.61,0,0,1,10.93,11.35Z"/><path d="M11,8.37a1,1,0,0,1-.49,1,1,1,0,0,1-.67.09.55.55,0,0,1-.3-.23c0-.09,0-.13-.08-.42a1,1,0,0,0-.09-.32.71.71,0,0,0-.24-.23,2.79,2.79,0,0,1-.64-.76,1.21,1.21,0,0,1,0-.75.86.86,0,0,1,.36-.4.87.87,0,0,1,.32-.1,1.22,1.22,0,0,1,.76.42c.19.24.16.46.27.76A1.9,1.9,0,0,0,11,8.37Z"/><path d="M11.26,12.71a.2.2,0,0,0,.2.22l0,0,.21-.2,0,0a.49.49,0,0,1,.24-.14l.26-.26,0,0s-.05,0-.07,0a.32.32,0,0,0-.34.14l-.06.06a.48.48,0,0,1-.18.06Z"/><path d="M8.94,6.84s-.21-.53-.52,0L8.29,8.53l.29,0"/><path d="M8.09,9.47l.17-1.05s.2-.42.34,0L8.16,9.91,8,9.88Z"/><path d="M9.65,6.23a.3.3,0,0,0-.45,0,.29.29,0,0,0,0,.4l1.51,1.07.14-.31"/><path d="M11.62,8l-.89-.34a.18.18,0,0,1-.11-.24.17.17,0,0,1,.23-.09c.31.14.5.27,1.13.62L12,8,12,8.12Z"/><path d="M7.59,7a1.34,1.34,0,0,0,0-.4c-.12-.42-.33-.5-.36-.82a.76.76,0,0,1,.2-.56.79.79,0,0,1,.7-.16L8,5.14l-.39.36.7.93a.86.86,0,0,1-.3.42A1,1,0,0,1,7.59,7Z"/><path d="M7.88,5.15s.07,0,.27.16a.37.37,0,0,0,.4.11s0,0-.06.11l0,0s.06,0,.06,0v0h0a.19.19,0,0,0,0,.08s.05,0,.07,0a.08.08,0,0,1,0,.07c0,.07-.1.21-.29.35l-.27.19-.64-.86Z"/><path d="M8.5,6a1.26,1.26,0,0,0,.61.37l-.42.4-.44-.48Z"/><path d="M11.94,8c0-.06.14-.09.31-.06L12.4,8l.11.1.06.07-.07,0-.1-.05.12.09c.08.06.09.08.09.09l-.11,0-.15-.08s0,0,.14.09l0,.06s0,0-.07,0l-.13-.06s0,0,.07.05l0,.05-.06,0-.09,0c-.12,0-.17,0-.23,0l-.07,0A.16.16,0,0,1,11.94,8Z"/><path d="M8.1,9.81c-.07,0-.12.13-.12.3l0,.16.07.13s.05.07.06.07a.25.25,0,0,0,0-.08l0-.11s0,.05.07.14l.07.1s0,0,0-.11a1.08,1.08,0,0,1,0-.17s0,0,.07.15l0,0,0-.08,0-.13s0,0,0,.08l0,0s0,0,0-.07a.2.2,0,0,1,0-.09c0-.13,0-.17,0-.24a.19.19,0,0,0,0-.08A.23.23,0,0,0,8.1,9.81Z"/><path d="M13.38,10.1a.2.2,0,0,0,.24.17l0,0,.17-.24,0,0A.5.5,0,0,1,14,9.85l.21-.31,0,0a.12.12,0,0,0-.08,0c-.11,0-.25.1-.31.2l0,.07a.29.29,0,0,1-.17.09Z"/></g><path d="M13.9,2.62A7.7,7.7,0,1,1,.14,9.47,8,8,0,1,0,13.9,2.62Z"/></g></svg>